<?xml version="1.0" encoding="UTF-8" standalone="no"?>
<svg
   xmlns:dc="http://purl.org/dc/elements/1.1/"
   xmlns:cc="http://creativecommons.org/ns#"
   xmlns:rdf="http://www.w3.org/1999/02/22-rdf-syntax-ns#"
   xmlns:svg="http://www.w3.org/2000/svg"
   xmlns="http://www.w3.org/2000/svg"
   xmlns:sodipodi="http://sodipodi.sourceforge.net/DTD/sodipodi-0.dtd"
   xmlns:inkscape="http://www.inkscape.org/namespaces/inkscape"
   sodipodi:docname="lora.svg"
   inkscape:version="1.0 (4035a4fb49, 2020-05-01)"
   id="svg8"
   version="1.1"
   viewBox="0 0 189.28145 163.28882"
   height="163.28882mm"
   width="189.28145mm"
   inkscape:export-filename="C:\Users\lenovo\Pictures\lora.png"
   inkscape:export-xdpi="96"
   inkscape:export-ydpi="96">
  <defs
     id="defs2">
    <inkscape:path-effect
       only_selected="false"
       apply_with_weight="true"
       apply_no_weight="true"
       helper_size="0"
       steps="2"
       weight="33.333333"
       lpeversion="1"
       is_visible="true"
       id="path-effect64"
       effect="bspline" />
    <inkscape:path-effect
       effect="bspline"
       id="path-effect45"
       is_visible="true"
       lpeversion="1"
       weight="33.333333"
       steps="2"
       helper_size="0"
       apply_no_weight="true"
       apply_with_weight="true"
       only_selected="false" />
    <inkscape:path-effect
       only_selected="false"
       apply_with_weight="true"
       apply_no_weight="true"
       helper_size="0"
       steps="2"
       weight="33.333333"
       lpeversion="1"
       is_visible="true"
       id="path-effect975"
       effect="bspline" />
    <inkscape:path-effect
       only_selected="false"
       apply_with_weight="true"
       apply_no_weight="true"
       helper_size="0"
       steps="2"
       weight="33.333333"
       lpeversion="1"
       is_visible="true"
       id="path-effect971"
       effect="bspline" />
    <inkscape:path-effect
       only_selected="false"
       apply_with_weight="true"
       apply_no_weight="true"
       helper_size="0"
       steps="2"
       weight="33.333333"
       lpeversion="1"
       is_visible="true"
       id="path-effect967"
       effect="bspline" />
    <inkscape:path-effect
       only_selected="false"
       apply_with_weight="true"
       apply_no_weight="true"
       helper_size="0"
       steps="2"
       weight="33.333333"
       lpeversion="1"
       is_visible="true"
       id="path-effect942"
       effect="bspline" />
    <inkscape:path-effect
       only_selected="false"
       apply_with_weight="true"
       apply_no_weight="true"
       helper_size="0"
       steps="2"
       weight="33.333333"
       lpeversion="1"
       is_visible="true"
       id="path-effect932"
       effect="bspline" />
    <inkscape:path-effect
       only_selected="false"
       apply_with_weight="true"
       apply_no_weight="true"
       helper_size="0"
       steps="2"
       weight="33.333333"
       lpeversion="1"
       is_visible="true"
       id="path-effect928"
       effect="bspline" />
    <inkscape:path-effect
       only_selected="false"
       apply_with_weight="true"
       apply_no_weight="true"
       helper_size="0"
       steps="2"
       weight="33.333333"
       lpeversion="1"
       is_visible="true"
       id="path-effect922"
       effect="bspline" />
    <inkscape:path-effect
       effect="bspline"
       id="path-effect918"
       is_visible="true"
       lpeversion="1"
       weight="33.333333"
       steps="2"
       helper_size="0"
       apply_no_weight="true"
       apply_with_weight="true"
       only_selected="false" />
    <inkscape:path-effect
       effect="bspline"
       id="path-effect916"
       is_visible="true"
       lpeversion="1"
       weight="33.333333"
       steps="2"
       helper_size="0"
       apply_no_weight="true"
       apply_with_weight="true"
       only_selected="false" />
    <inkscape:path-effect
       only_selected="false"
       apply_with_weight="true"
       apply_no_weight="true"
       helper_size="0"
       steps="2"
       weight="33.333333"
       lpeversion="1"
       is_visible="true"
       id="path-effect878"
       effect="bspline" />
    <inkscape:path-effect
       only_selected="false"
       apply_with_weight="true"
       apply_no_weight="true"
       helper_size="0"
       steps="2"
       weight="33.333333"
       lpeversion="1"
       is_visible="true"
       id="path-effect874"
       effect="bspline" />
  </defs>
  <sodipodi:namedview
     fit-margin-bottom="0"
     fit-margin-right="0"
     fit-margin-left="0"
     fit-margin-top="0"
     inkscape:window-maximized="1"
     inkscape:window-y="-8"
     inkscape:window-x="-8"
     inkscape:window-height="705"
     inkscape:window-width="1366"
     showgrid="false"
     inkscape:document-rotation="0"
     inkscape:current-layer="layer1"
     inkscape:document-units="mm"
     inkscape:cy="187.24302"
     inkscape:cx="-217.12697"
     inkscape:zoom="0.35355339"
     inkscape:pageshadow="2"
     inkscape:pageopacity="0.0"
     borderopacity="1.0"
     bordercolor="#666666"
     pagecolor="#ffffff"
     id="base" />
  <metadata
     id="metadata5">
    <rdf:RDF>
      <cc:Work
         rdf:about="">
        <dc:format>image/svg+xml</dc:format>
        <dc:type
           rdf:resource="http://purl.org/dc/dcmitype/StillImage" />
        <dc:title></dc:title>
      </cc:Work>
    </rdf:RDF>
  </metadata>
  <g
     transform="translate(-9.4285475,-61.849516)"
     id="layer1"
     inkscape:groupmode="layer"
     inkscape:label="Warstwa 1">
    <g
       id="g888">
      <path
         style="fill:#88aa00;fill-opacity:1;stroke:#000000;stroke-width:0.264583px;stroke-linecap:butt;stroke-linejoin:miter;stroke-opacity:1"
         d="m 135.07815,158.1836 c 1.12265,1.21622 3.36772,3.64837 5.37998,5.81553 2.01226,2.16717 3.84985,4.13149 6.03258,6.40776 2.18273,2.27627 4.73955,4.89546 6.8755,7.06258 2.13595,2.16713 3.78853,3.81971 5.34508,5.25713 1.55654,1.43741 3.12069,2.74087 4.67978,4.11288 1.55908,1.372 3.18048,2.86868 4.70645,4.24288 1.52598,1.3742 3.08889,2.74175 4.71034,4.17611 1.62145,1.43436 3.36758,2.99341 5.11376,4.55249 1.74618,1.55909 3.49231,3.11813 5.11376,4.5213 1.62145,1.40317 3.11813,2.65041 4.5057,3.91328 1.38757,1.26287 2.72835,2.60365 3.51207,3.35285 0.78371,0.7492 1.04146,0.93801 1.57824,1.4183 0.53678,0.48028 1.35256,1.25196 2.08015,2.04574 0.72759,0.79378 1.36699,1.60956 1.89613,2.38128 0.52915,0.77172 0.94807,1.49931 1.23465,2.1718 0.28658,0.67249 0.44092,1.28984 0.56217,1.9072 0.12125,0.61736 0.20944,1.2347 0.15444,1.53224 -0.055,0.29753 -0.25343,0.2755 -0.93696,-0.26459 -0.68353,-0.54009 -1.85208,-1.5984 -3.56086,-3.05363 -1.70879,-1.45524 -3.9577,-3.30728 -6.14053,-5.08221 -2.18283,-1.77493 -4.29946,-3.47264 -6.40512,-5.19245 -2.10567,-1.7198 -4.20025,-3.46161 -6.77996,-5.53421 -2.57971,-2.07259 -5.64441,-4.47585 -8.49974,-6.7579 -2.85532,-2.28205 -5.5011,-4.44277 -8.11388,-6.53741 -2.61278,-2.09464 -5.19242,-4.12307 -7.51857,-5.96415 -2.32616,-1.84107 -4.39868,-3.49468 -6.28386,-5.03809 -1.88517,-1.54342 -3.58288,-2.97655 -4.86171,-4.02387 -1.27882,-1.04733 -2.1387,-1.70877 -2.58188,-2.04614 -0.44317,-0.33738 -0.50486,-0.36821 -0.75856,-1.51468 -0.25371,-1.14648 -0.71672,-3.41744 -1.08054,-5.76565 -0.36382,-2.34821 -0.6284,-4.7735 -0.79207,-6.33841 -0.16367,-1.56491 -0.22642,-2.26934 -0.25781,-2.6217 -0.0314,-0.35237 -0.0314,-0.35247 1.09127,0.86374 z"
         id="path965"
         inkscape:path-effect="#path-effect967"
         inkscape:original-d="m 133.95549,156.96739 c 2.24532,2.43242 4.49039,4.86457 6.73519,7.29646 1.74646,1.93355 3.61731,3.86676 5.42557,5.79975 2.55719,2.61956 5.11402,5.23874 7.67063,7.85772 1.74646,1.6841 3.36787,3.36786 5.0514,5.0514 1.43464,1.18518 2.99368,2.49478 4.49013,3.74177 1.62173,1.497 3.24313,2.99368 4.8643,4.49013 1.43464,1.24754 2.99369,2.6195 4.49013,3.92886 1.74646,1.55937 3.49259,3.11841 5.23848,4.67722 1.74646,1.55937 3.49259,3.11841 5.23849,4.67721 1.497,1.24755 2.99368,2.49478 4.49012,3.74178 1.30991,1.24754 2.61951,2.6195 3.92886,3.92886 0.25804,0.18908 0.51579,0.37789 0.77329,0.56645 0.81608,0.77198 1.63186,1.54366 2.4474,2.3151 0.63969,0.81608 1.27908,1.63186 1.91823,2.4474 0.41919,0.72788 0.83811,1.45547 1.25677,2.18281 0.15461,0.61764 0.30894,1.23499 0.46302,1.85208 0.0885,0.61764 0.17665,1.23499 0.26458,1.85209 -0.19817,-0.0218 -0.39661,-0.0438 -0.59531,-0.0661 -1.16834,-1.05809 -2.33689,-2.1164 -3.50573,-3.175 -2.24874,-1.85186 -4.49765,-3.7039 -6.74688,-5.55625 -2.11644,-1.69751 -4.23306,-3.39522 -6.35,-5.09323 -2.09439,-1.74161 -4.18897,-3.48342 -6.28385,-5.22552 -3.06455,-2.40308 -6.12925,-4.80633 -9.19427,-7.20989 -2.64562,-2.16055 -5.2914,-4.32127 -7.9375,-6.4823 -2.57947,-2.02824 -5.15911,-4.05668 -7.73906,-6.08541 -2.07235,-1.65342 -4.14488,-3.30703 -6.21771,-4.96094 -1.69751,-1.43292 -3.39522,-2.86605 -5.09323,-4.29948 -0.85965,-0.66121 -1.71953,-1.32265 -2.57969,-1.98437 -0.0218,-0.0218 -0.0879,-0.0438 -0.13229,-0.0661 -0.46276,-2.27079 -0.92578,-4.54175 -1.38906,-6.81302 -0.26433,-2.42513 -0.5289,-4.85043 -0.79375,-7.27604 -0.0625,-0.7042 -0.12524,-1.40863 -0.18826,-2.11334 z" />
      <path
         style="fill:#ffd42a;fill-opacity:1;stroke:#000000;stroke-width:0.264583px;stroke-linecap:butt;stroke-linejoin:miter;stroke-opacity:1"
         d="m 82.968709,180.25311 c -0.286659,0.70562 -0.859922,2.11673 -1.32846,3.29083 -0.468537,1.17411 -0.83233,2.11115 -1.190623,2.99861 -0.358294,0.88746 -0.711064,1.72529 -1.052822,2.50802 -0.341757,0.78273 -0.67248,1.51032 -0.915016,2.06705 -0.242537,0.55674 -0.396877,0.94259 -0.567754,1.35049 -0.170877,0.40789 -0.358286,0.83783 -0.48297,1.11992 -0.124684,0.28209 -0.195022,0.43448 -0.194834,0.52824 1.87e-4,0.0937 0.06633,0.13785 0.264725,0.13222 0.198391,-0.006 0.529106,-0.0608 0.964584,-0.11036 0.435478,-0.0496 0.975656,-0.0937 1.510351,-0.12126 0.534695,-0.0276 1.06385,-0.0386 1.68122,-0.0496 0.617369,-0.011 1.322909,-0.0221 1.901698,-0.0165 0.578789,0.006 1.030778,0.0276 1.422594,0.0868 0.391815,0.0592 0.743722,0.16138 1.035855,0.31028 0.292134,0.14891 0.534663,0.34734 0.749576,0.6285 0.214913,0.28117 0.402326,0.64496 0.490429,1.0363 0.0881,0.39133 0.07707,0.81025 0.06603,1.16303 -0.01103,0.35278 -0.02207,0.6394 -0.09926,0.90942 -0.07719,0.27001 -0.220502,0.52356 -0.413397,0.75503 -0.192895,0.23146 -0.435426,0.44091 -0.854247,0.57871 -0.418822,0.1378 -1.014125,0.20395 -1.664547,0.22602 -0.650421,0.0221 -1.355961,4e-5 -2.072529,-0.0991 -0.716568,-0.0992 -1.44416,-0.27557 -2.177288,-0.42441 -0.733129,-0.14884 -1.471742,-0.2701 -2.276524,-0.40791 -0.804782,-0.1378 -1.675685,-0.29214 -2.513557,-0.38035 -0.837871,-0.0882 -1.642625,-0.11024 -2.386885,-0.0779 -0.74426,0.0324 -1.449622,0.12195 -2.629249,0.32038 -1.179626,0.19844 -2.844265,0.50711 -4.415232,0.74965 -1.570967,0.24255 -3.048196,0.41893 -4.591608,0.56777 -1.543411,0.14883 -3.152928,0.2701 -4.40418,0.31421 -1.251252,0.0441 -2.144205,0.011 -2.756044,-0.13216 -0.611839,-0.1432 -0.942567,-0.39676 -1.240292,-0.78808 -0.297726,-0.39132 -0.562306,-0.92048 -0.710888,-1.46622 -0.148583,-0.54575 -0.182289,-1.12999 -0.105152,-1.6427 0.07714,-0.51271 0.264545,-0.96469 0.545699,-1.37266 0.281154,-0.40798 0.655969,-0.77177 1.157875,-1.01331 0.501905,-0.24155 1.151944,-0.36483 1.879585,-0.42545 0.727642,-0.0606 1.543424,-0.0606 2.342703,-0.022 0.79928,0.0386 1.581994,0.11577 2.315115,0.1764 0.733121,0.0606 1.416615,0.10472 2.193827,0.12676 0.777212,0.022 1.648114,0.022 2.419828,0.0386 0.771715,0.0165 1.444184,0.0496 2.14973,0.0331 0.705545,-0.0166 1.444156,-0.0827 2.03946,-0.15437 0.595304,-0.0717 1.047294,-0.14884 1.34247,-0.26735 0.295177,-0.11851 0.443218,-0.28932 0.757398,-0.89011 0.314179,-0.60079 0.799241,-1.63706 1.378022,-2.98754 0.578781,-1.35048 1.251251,-3.01512 1.796959,-4.43175 0.545708,-1.41663 0.964622,-2.58518 1.26228,-3.38996 0.297658,-0.80479 0.474046,-1.24576 1.730993,-1.52695 1.256946,-0.28119 3.594053,-0.40246 4.762504,-0.46308 1.168451,-0.0606 1.168504,-0.0607 0.881846,0.6449 z"
         id="path43-3"
         inkscape:path-effect="#path-effect64"
         inkscape:original-d="m 83.255367,179.54749 c -0.573,1.41137 -1.146262,2.82248 -1.719791,4.23333 -0.363546,0.93735 -0.72734,1.87439 -1.091407,2.8112 -0.35252,0.83812 -0.705291,1.67595 -1.058333,2.51354 -0.33047,0.72788 -0.661194,1.45547 -0.992187,2.18281 -0.154078,0.38612 -0.308418,0.77197 -0.463022,1.15755 -0.187153,0.43022 -0.374562,0.86016 -0.562239,1.28985 -0.06588,0.13256 -0.132027,0.28689 -0.198438,0.42994 0.06641,0.0444 0.132557,0.0885 0.198438,0.1323 0.331002,-0.0549 0.661723,-0.10998 0.992188,-0.16537 0.540467,-0.0438 1.080645,-0.0879 1.620573,-0.13229 0.529441,-0.0108 1.058597,-0.0218 1.5875,-0.0331 0.705834,-0.0108 1.411374,-0.0218 2.116666,-0.0331 0.452271,0.0223 0.904259,0.0444 1.35599,0.0662 0.331001,0.0995 0.68377,0.1987 1.02526,0.29766 0.242806,0.1987 0.48533,0.39714 0.7276,0.59531 0.18769,0.36407 0.3751,0.72787 0.56224,1.0914 -0.0108,0.4192 -0.0218,0.83812 -0.0331,1.25678 -0.0108,0.2869 -0.0218,0.57352 -0.0331,0.85989 -0.14305,0.25383 -0.28636,0.50738 -0.42994,0.76068 -0.24228,0.20973 -0.484807,0.41919 -0.727608,0.62838 -0.595058,0.0664 -1.19036,0.13256 -1.785937,0.19844 -0.705305,-0.0218 -1.410846,-0.0438 -2.116667,-0.0661 -0.727353,-0.17613 -1.454944,-0.35252 -2.182812,-0.52917 -0.738378,-0.12101 -1.476992,-0.24227 -2.215885,-0.3638 -0.870673,-0.15408 -1.741576,-0.30842 -2.612761,-0.46302 -0.804527,-0.0218 -1.609282,-0.0438 -2.414323,-0.0661 -0.683255,0.0885 -1.388797,0.17665 -2.083594,0.26458 -1.664437,0.30895 -3.329075,0.61763 -4.99401,0.92604 -1.477021,0.17666 -2.95425,0.35305 -4.431771,0.52917 -1.609315,0.12154 -3.218833,0.2428 -4.828646,0.3638 -0.892722,-0.0328 -1.785673,-0.0659 -2.678906,-0.0992 -0.33047,-0.25329 -0.661194,-0.50685 -0.992187,-0.76067 -0.264325,-0.52891 -0.528903,-1.05807 -0.79375,-1.5875 -0.03281,-0.56199 -0.06588,-1.14626 -0.09922,-1.71979 0.187682,-0.45175 0.375092,-0.90373 0.562239,-1.35599 0.3751,-0.36355 0.749917,-0.72734 1.12448,-1.09141 0.628663,-0.121 1.279083,-0.24227 1.918229,-0.3638 0.81608,2.6e-4 1.631862,2.6e-4 2.447395,0 0.783006,0.0774 1.565717,0.1546 2.348178,0.23151 0.683786,0.0444 1.367279,0.0885 2.05052,0.13229 0.871202,2.7e-4 1.742104,2.7e-4 2.612761,0 0.672761,0.0333 1.345229,0.0664 2.017448,0.0992 0.738908,-0.0659 1.47752,-0.13203 2.215885,-0.19844 0.452271,-0.0769 0.90426,-0.15407 1.35599,-0.23151 0.132558,-0.1651 0.286895,-0.33046 0.429947,-0.49609 0.485344,-1.03604 0.970405,-2.07231 1.455209,-3.10886 0.672761,-1.66443 1.34523,-3.32907 2.017449,-4.99401 0.419197,-1.16833 0.838111,-2.33688 1.25677,-3.50573 0.176657,-0.44071 0.353042,-0.88168 0.529166,-1.32291 2.337465,-0.12101 4.674572,-0.24227 7.01146,-0.3638 z" />
      <path
         style="fill:#efe24a;fill-opacity:1;stroke:none;stroke-width:0.5"
         d="m 461.0843,634.55061 c -29.24826,-2.66035 -62.67876,-10.39269 -91.43922,-21.1495 -15.21046,-5.68893 -40.5354,-17.23795 -76.81078,-35.0283 -16.01284,-7.85309 -24.78773,-11.97161 -37.75,-17.71806 -3.4375,-1.52392 -5.9669,-2.77695 -5.62088,-2.78451 0.34601,-0.008 3.04601,0.5625 5.99999,1.26681 21.67839,5.16871 39.1938,8.33581 72.87089,13.17636 30.87653,4.43801 34.27988,4.71191 54.5,4.38624 17.11403,-0.27565 24.112,-0.81968 36.62631,-2.8474 18.18301,-2.94623 38.7072,-8.86651 59.9622,-17.29632 5.82367,-2.30969 10.91208,-4.19944 11.30757,-4.19944 1.16771,0 3.31308,1.9575 4.29871,3.92226 2.80577,5.59308 9.52208,31.40339 12.51069,48.07774 1.55277,8.66331 3.0497,21.11203 2.70695,22.51124 -0.63483,2.59151 -2.73124,4.03469 -7.16243,4.93067 -7.59662,1.53603 -35.36534,3.35568 -42,2.75221 z"
         id="path924"
         transform="scale(0.26458333)" />
      <path
         inkscape:original-d="m 94.621613,181.43802 c -0.573,1.41137 -1.146262,2.82248 -1.719791,4.23333 -0.363546,0.93735 -0.72734,1.87439 -1.091406,2.8112 -0.352521,0.83812 -0.705292,1.67595 -1.058334,2.51354 -0.33047,0.72788 -0.661194,1.45547 -0.992187,2.18281 -0.154078,0.38612 -0.308417,0.77197 -0.463021,1.15755 -0.187153,0.43022 -0.374563,0.86016 -0.56224,1.28985 -0.06588,0.13256 -0.132027,0.28689 -0.198437,0.42994 0.06641,0.0444 0.132556,0.0885 0.198437,0.1323 0.331002,-0.0549 0.661723,-0.10998 0.992188,-0.16537 0.540467,-0.0438 1.080645,-0.0879 1.620573,-0.13229 0.529442,-0.0108 1.058598,-0.0218 1.5875,-0.0331 0.705834,-0.0108 1.411374,-0.0218 2.116666,-0.0331 0.452271,0.0223 0.904259,0.0444 1.35599,0.0662 0.331002,0.0995 0.683771,0.1987 1.02526,0.29766 0.242806,0.1987 0.485333,0.39714 0.727604,0.59531 0.187683,0.36407 0.375092,0.72787 0.56224,1.0914 -0.01077,0.4192 -0.02178,0.83812 -0.03307,1.25678 -0.01077,0.2869 -0.02178,0.57352 -0.03307,0.85989 -0.143055,0.25383 -0.286366,0.50738 -0.429948,0.76068 -0.242273,0.20973 -0.484804,0.41919 -0.727604,0.62838 -0.595058,0.0664 -1.19036,0.13256 -1.785937,0.19844 -0.705305,-0.0218 -1.410846,-0.0438 -2.116667,-0.0661 -0.727353,-0.17613 -1.454944,-0.35252 -2.182812,-0.52917 -0.738378,-0.12101 -1.476992,-0.24227 -2.215886,-0.3638 -0.870672,-0.15408 -1.741575,-0.30842 -2.61276,-0.46302 -0.804527,-0.0218 -1.609283,-0.0438 -2.414323,-0.0661 -0.683255,0.0885 -1.388798,0.17665 -2.083594,0.26458 -1.664438,0.30895 -3.329075,0.61763 -4.99401,0.92604 -1.477021,0.17666 -2.95425,0.35305 -4.431771,0.52917 -1.609315,0.12154 -3.218833,0.2428 -4.828646,0.3638 -0.892722,-0.0328 -1.785673,-0.0659 -2.678906,-0.0992 -0.33047,-0.25329 -0.661194,-0.50685 -0.992187,-0.76067 -0.264325,-0.52891 -0.528903,-1.05807 -0.79375,-1.5875 -0.03281,-0.56199 -0.06588,-1.14626 -0.09922,-1.71979 0.187682,-0.45175 0.375092,-0.90373 0.562239,-1.35599 0.3751,-0.36355 0.749917,-0.72734 1.12448,-1.09141 0.628663,-0.121 1.279083,-0.24227 1.918229,-0.3638 0.81608,2.6e-4 1.631862,2.6e-4 2.447395,0 0.783006,0.0774 1.565717,0.1546 2.348178,0.23151 0.683786,0.0444 1.367279,0.0885 2.05052,0.13229 0.871202,2.7e-4 1.742104,2.7e-4 2.612761,0 0.672761,0.0333 1.345229,0.0664 2.017448,0.0992 0.738907,-0.0659 1.47752,-0.13203 2.215885,-0.19844 0.452271,-0.0769 0.904259,-0.15407 1.35599,-0.23151 0.132558,-0.1651 0.286895,-0.33046 0.429947,-0.49609 0.485344,-1.03604 0.970405,-2.07231 1.455209,-3.10886 0.672761,-1.66443 1.345229,-3.32907 2.017448,-4.99401 0.419198,-1.16833 0.838112,-2.33688 1.25677,-3.50573 0.176657,-0.44071 0.353042,-0.88168 0.529167,-1.32291 2.337464,-0.12101 4.674571,-0.24227 7.011458,-0.3638 z"
         inkscape:path-effect="#path-effect45"
         id="path43"
         d="m 94.334955,182.14364 c -0.286659,0.70562 -0.859922,2.11673 -1.32846,3.29083 -0.468537,1.17411 -0.832329,2.11115 -1.190623,2.99861 -0.358293,0.88746 -0.711064,1.72529 -1.052821,2.50802 -0.341758,0.78273 -0.672481,1.51032 -0.915017,2.06705 -0.242536,0.55674 -0.396876,0.94259 -0.567754,1.35049 -0.170877,0.40789 -0.358286,0.83783 -0.48297,1.11992 -0.124683,0.28209 -0.195021,0.43448 -0.194833,0.52824 1.87e-4,0.0937 0.06633,0.13785 0.264724,0.13222 0.198391,-0.006 0.529106,-0.0608 0.964584,-0.11036 0.435478,-0.0496 0.975656,-0.0937 1.510352,-0.12126 0.534695,-0.0276 1.06385,-0.0386 1.681219,-0.0496 0.617369,-0.011 1.322909,-0.0221 1.901698,-0.0165 0.578789,0.006 1.030778,0.0276 1.422594,0.0868 0.391816,0.0592 0.743723,0.16138 1.035856,0.31028 0.292133,0.14891 0.534665,0.34734 0.749578,0.6285 0.214913,0.28116 0.402325,0.64496 0.490434,1.0363 0.08811,0.39133 0.07709,0.81025 0.06606,1.16303 -0.01103,0.35278 -0.02205,0.6394 -0.09924,0.90942 -0.07719,0.27001 -0.220502,0.52356 -0.413396,0.75502 -0.192893,0.23147 -0.435426,0.44092 -0.854247,0.57872 -0.418821,0.1378 -1.014124,0.20395 -1.664546,0.22602 -0.650421,0.0221 -1.355961,4e-5 -2.072529,-0.0991 -0.716568,-0.0992 -1.44416,-0.27557 -2.177288,-0.42441 -0.733129,-0.14884 -1.471742,-0.2701 -2.276524,-0.40791 -0.804782,-0.1378 -1.675685,-0.29214 -2.513557,-0.38035 -0.837871,-0.0882 -1.642626,-0.11024 -2.386886,-0.0779 -0.744259,0.0324 -1.449622,0.12195 -2.629249,0.32038 -1.179626,0.19844 -2.844264,0.50711 -4.415231,0.74965 -1.570967,0.24255 -3.048196,0.41893 -4.591608,0.56777 -1.543411,0.14883 -3.152928,0.2701 -4.40418,0.31421 -1.251252,0.0441 -2.144205,0.0111 -2.756044,-0.13216 -0.611839,-0.1432 -0.942567,-0.39676 -1.240292,-0.78808 -0.297726,-0.39132 -0.562306,-0.92048 -0.710888,-1.46622 -0.148583,-0.54575 -0.182289,-1.12999 -0.105152,-1.6427 0.07714,-0.51271 0.264545,-0.96469 0.545699,-1.37266 0.281154,-0.40798 0.655969,-0.77177 1.157875,-1.01331 0.501905,-0.24155 1.151944,-0.36483 1.879585,-0.42545 0.727642,-0.0606 1.543424,-0.0606 2.342703,-0.022 0.79928,0.0386 1.581994,0.11577 2.315115,0.1764 0.733121,0.0606 1.416615,0.10472 2.193827,0.12676 0.777212,0.022 1.648114,0.022 2.419828,0.0386 0.771715,0.0165 1.444184,0.0496 2.149729,0.0331 0.705545,-0.0166 1.444157,-0.0827 2.039461,-0.15437 0.595304,-0.0717 1.047293,-0.14884 1.34247,-0.26735 0.295177,-0.11851 0.443218,-0.28932 0.757398,-0.89011 0.314179,-0.60079 0.799241,-1.63706 1.378022,-2.98754 0.57878,-1.35048 1.251251,-3.01512 1.796958,-4.43175 0.545708,-1.41663 0.964622,-2.58518 1.26228,-3.38996 0.297658,-0.80479 0.474047,-1.24576 1.730993,-1.52695 1.256946,-0.28119 3.594053,-0.40246 4.762503,-0.46308 1.168451,-0.0606 1.168446,-0.0607 0.881788,0.6449 z"
         style="fill:#ffd42a;fill-opacity:1;stroke:#000000;stroke-width:0.264583px;stroke-linecap:butt;stroke-linejoin:miter;stroke-opacity:1" />
      <path
         style="fill:#ff4081;fill-opacity:1;stroke:#000000;stroke-width:0.264583px;stroke-linecap:butt;stroke-linejoin:miter;stroke-opacity:1"
         d="m 51.152905,62.022739 c 0.749782,-0.02205 2.249086,-0.06615 3.616129,-0.02203 1.367043,0.04412 2.60174,0.176406 3.814437,0.39692 1.212698,0.220515 2.403298,0.529189 3.439596,0.859945 1.036297,0.330756 1.918225,0.683527 2.976568,1.190673 1.058343,0.507145 2.29304,1.16859 3.362792,1.844033 1.069752,0.675444 2.017033,1.397182 2.818728,2.003964 0.801696,0.606782 1.535459,1.157104 2.318178,1.851665 0.782719,0.694562 1.686695,1.598538 2.480444,2.4364 0.793748,0.837863 1.499289,1.631596 2.13867,2.535617 0.63938,0.90402 1.212633,1.918236 1.807935,3.108877 0.595301,1.190641 1.21265,2.557628 1.681179,3.834966 0.468529,1.277338 0.766134,2.382726 1.006087,3.683899 0.239952,1.301172 0.421455,2.843943 0.597842,4.497606 0.176388,1.653662 0.352773,3.461613 0.463008,4.916825 0.110235,1.455212 0.154332,2.55762 0.176375,3.814402 0.02204,1.256781 0.02204,2.667861 7e-4,4.034901 -0.02134,1.36705 -0.06686,2.77809 0.109683,3.61593 0.176543,0.83783 0.573409,1.14651 1.091575,1.59928 0.518167,0.45278 1.201611,1.09066 1.796917,1.68598 0.595306,0.59533 1.124464,1.16859 1.807988,1.8521 0.683523,0.6835 1.521351,1.47723 2.494367,2.08715 0.973016,0.60991 2.157937,1.06564 3.262425,1.45611 1.104488,0.39047 2.246897,0.75604 3.371389,1.2191 1.124492,0.46305 2.270993,1.03631 3.461633,1.67573 1.19064,0.63943 2.42533,1.34496 3.50209,1.9901 1.07676,0.64513 2.09823,1.29516 3.22273,2.04483 1.12449,0.74967 2.40328,1.63159 3.70415,2.60175 1.30088,0.97016 2.62377,2.02847 3.8585,3.06478 1.23473,1.0363 2.38124,2.05052 3.27422,2.8987 0.89298,0.84818 1.57643,1.57719 2.43633,2.54735 0.8599,0.97016 1.91821,2.20485 2.83355,3.31567 0.91534,1.11082 1.73048,2.15239 2.57876,3.29148 0.84828,1.1391 1.70935,2.3446 2.34874,3.31475 0.6394,0.97015 1.03626,1.67569 1.31579,2.25154 0.27952,0.57584 0.47007,1.09985 0.86694,2.31254 0.39687,1.21269 1.01422,3.15293 1.49927,4.98298 0.48506,1.83005 0.83783,3.5498 1.18983,5.3317 0.35201,1.78191 0.70633,3.64206 0.90475,4.98702 0.19841,1.34497 0.24251,2.1828 0.48507,3.74828 0.24256,1.56549 0.68353,3.8585 1.01424,6.4382 0.33071,2.57971 0.55119,5.44597 0.71664,7.72811 0.16546,2.28215 0.27589,3.98005 0.34203,6.07468 0.0661,2.09463 0.088,4.58589 0.0107,6.82373 -0.0773,2.23784 -0.25366,4.22218 -0.47416,5.87583 -0.2205,1.65364 -0.48508,2.97653 -0.81582,4.10098 -0.33074,1.12444 -0.7276,2.05047 -1.19048,2.53547 -0.46288,0.48499 -0.99204,0.52909 -2.52863,0.11257 -1.5366,-0.41653 -4.10777,-1.30314 -6.57348,-2.28156 -2.46572,-0.97842 -4.76624,-2.02016 -7.14751,-3.25488 -2.38128,-1.23472 -4.80658,-2.6458 -7.1658,-4.07896 -2.35923,-1.43317 -4.65223,-2.88835 -7.09967,-4.6302 -2.44743,-1.74184 -5.049111,-3.77027 -6.724832,-5.18137 -1.675721,-1.41109 -2.425362,-2.20483 -3.307352,-2.46957 -0.88199,-0.26474 -1.896207,-1.6e-4 -3.152965,0.11074 -1.256759,0.1109 -2.844194,0.0655 -4.740391,-0.0447 -1.896197,-0.11024 -4.145111,-0.28663 -6.612432,-0.5069 -2.467321,-0.22028 -5.161493,-0.48528 -7.939634,-1.01442 -2.77814,-0.52915 -5.644405,-1.32288 -8.069768,-2.2048 -2.425364,-0.88192 -4.409698,-1.85204 -6.350002,-2.95446 -1.940303,-1.10242 -3.836447,-2.33712 -5.909058,-4.03486 -2.072611,-1.69773 -4.321522,-3.85845 -6.420776,-6.34678 -2.099253,-2.48832 -4.118515,-5.40503 -5.75016,-8.27137 -1.631644,-2.86634 -2.910437,-5.73261 -3.792428,-8.44462 -0.881991,-2.71201 -1.367049,-5.26959 -1.71985,-8.26825 -0.3528,-2.99866 -0.573282,-6.43817 -0.749674,-9.50296 -0.176393,-3.06479 -0.308681,-5.75466 -0.352787,-8.37848 -0.04411,-2.62382 -1e-5,-5.1814 0.551191,-7.76118 0.5512,-2.57978 1.609512,-5.18146 2.029954,-8.09194 0.420442,-2.91047 0.196994,-6.2175 -0.193972,-8.82094 -0.390965,-2.603437 -0.975976,-4.628473 -1.174465,-6.987736 -0.198489,-2.359263 -0.0221,-5.093237 0.110192,-7.650895 0.132296,-2.557658 0.220488,-4.93886 0.330717,-6.460247 0.110229,-1.521386 0.242518,-2.182831 0.220515,-3.009614 -0.022,-0.826783 -0.198389,-1.818951 -0.103553,-2.69208 0.09484,-0.873129 0.47832,-1.662654 0.897259,-2.357225 0.41894,-0.694572 0.881952,-1.311921 1.54344,-2.017511 0.661489,-0.70559 1.521366,-1.499323 2.348212,-2.193871 0.826847,-0.694548 1.620582,-1.289849 2.359229,-1.808001 0.738648,-0.518153 1.422141,-0.959116 2.171836,-1.344976 0.749696,-0.38586 1.565479,-0.716582 2.282096,-0.948088 0.716617,-0.231505 1.333967,-0.363794 2.028531,-0.451975 0.694564,-0.08818 1.466248,-0.132277 1.851975,-0.154318 0.385726,-0.02204 0.385716,-0.02204 1.135497,-0.04409 z"
         id="path940"
         inkscape:path-effect="#path-effect942"
         inkscape:original-d="m 50.403124,62.044791 c 1.499571,-0.04383 2.998875,-0.08793 4.497917,-0.132292 1.235011,0.132559 2.469708,0.264848 3.704167,0.396875 1.190913,0.308952 2.381514,0.617625 3.571875,0.926042 0.882226,0.353049 1.764154,0.705821 2.645833,1.058333 1.235011,0.661736 2.469708,1.323181 3.704166,1.984375 0.926325,0.661736 1.852348,1.411375 2.778125,2.116667 0.661737,0.529442 1.411375,1.058598 2.116667,1.5875 0.882227,0.838128 1.764154,1.764154 2.645833,2.645833 0.705835,0.794031 1.411375,1.587765 2.116667,2.38125 0.57354,1.014521 1.146791,2.028738 1.719792,3.042708 0.617638,1.367306 1.234987,2.734292 1.852083,4.101042 0.308951,1.190913 0.617625,2.293321 0.926042,3.439583 0.176657,1.455502 0.353041,2.998875 0.529166,4.497917 0.176657,1.808287 0.353042,3.616238 0.529167,5.423958 0.04436,1.102717 0.08846,2.205125 0.132292,3.307292 2.64e-4,1.411406 2.64e-4,2.822486 0,4.233336 -0.04383,1.3232 -0.08793,2.73429 -0.132292,4.10104 0.397147,0.30895 0.794015,0.61762 1.190625,0.92604 0.661736,0.57354 1.323181,1.23499 1.984375,1.85208 0.529442,0.57354 1.058598,1.1468 1.5875,1.7198 0.838128,0.79403 1.675958,1.58776 2.513542,2.38125 1.102717,0.44124 2.293321,0.8822 3.439583,1.32291 1.058619,0.35305 2.205125,0.70582 3.307291,1.05834 1.146816,0.57354 2.29332,1.14679 3.43958,1.71979 1.23502,0.70583 2.46971,1.41137 3.70417,2.11666 0.92633,0.57354 1.94054,1.23499 2.91042,1.85209 1.27911,0.88222 2.5579,1.76415 3.83646,2.64583 1.3232,1.05862 2.64609,2.11693 3.96875,3.175 1.14681,1.01452 2.29332,2.02874 3.43958,3.04271 0.66173,0.66173 1.32318,1.41137 1.98437,2.11666 1.05862,1.23502 2.11693,2.46971 3.175,3.70417 0.79403,0.97042 1.58777,2.02874 2.38125,3.04271 0.88223,1.27911 1.76416,2.46971 2.64584,3.70417 0.39714,0.70583 0.79401,1.41137 1.19062,2.11666 0.17666,0.44125 0.35304,0.97041 0.52917,1.45521 0.61764,1.94058 1.23499,3.88082 1.85208,5.82083 0.35305,1.7201 0.70582,3.43985 1.05833,5.15938 0.30896,1.85238 0.70583,3.70443 1.05834,5.55625 0.0444,0.83813 0.0885,1.67596 0.13229,2.51354 0.44125,2.29337 0.88221,4.58638 1.32292,6.87917 0.22075,2.86664 0.44123,5.7329 0.66145,8.59896 0.1107,1.69823 0.22113,3.39613 0.33129,5.0938 0.0221,2.49161 0.044,4.98287 0.0656,7.4739 -0.17613,1.98468 -0.35251,3.96902 -0.52917,5.95313 -0.26432,1.32321 -0.5289,2.6461 -0.79375,3.96875 -0.39662,0.92632 -0.79348,1.85235 -1.19062,2.77812 -0.52891,0.0444 -1.05807,0.0885 -1.5875,0.1323 -2.55743,-0.8376 -5.11501,-1.76363 -7.67292,-2.64584 -2.38103,-1.05809 -4.67404,-2.1164 -7.01146,-3.175 -2.42513,-1.41087 -4.85043,-2.82196 -7.27604,-4.23333 -2.29283,-1.45497 -4.58584,-2.91015 -6.87916,-4.36563 -2.60153,-2.02824 -5.203213,-4.05667 -7.805213,-6.08541 -0.749403,-0.7935 -1.499042,-1.58724 -2.248958,-2.38125 -1.013992,0.26485 -2.028209,0.52943 -3.042708,0.79375 -1.499071,-0.0438 -3.086542,-0.0879 -4.630209,-0.13229 -2.248738,-0.17613 -4.497652,-0.35252 -6.746875,-0.52917 -2.689719,-0.22023 -5.379595,-0.5289 -8.069791,-0.79375 -2.866112,-0.7935 -5.732375,-1.58724 -8.598958,-2.38125 -1.984151,-0.96989 -3.968486,-1.94001 -5.953125,-2.91042 -1.895954,-1.23448 -3.792096,-2.46918 -5.688542,-3.70416 -2.248739,-2.16055 -4.497652,-4.32127 -6.746875,-6.4823 -1.940052,-2.82201 -3.968485,-5.73237 -5.953125,-8.59895 -1.27858,-2.86612 -2.557375,-5.73238 -3.836458,-8.59896 -0.484815,-2.55743 -0.969875,-5.11501 -1.455208,-7.67292 -0.220226,-3.43939 -0.440709,-6.8789 -0.661459,-10.31875 -0.132029,-2.68972 -0.264318,-5.37959 -0.396875,-8.06979 0.04436,-2.55743 0.08846,-5.11501 0.132292,-7.67292 1.058619,-2.60152 2.116931,-5.2032 3.175,-7.8052 -0.220226,-3.2189 -0.440709,-6.52613 -0.661458,-9.789588 -0.573011,-1.940052 -1.146263,-3.968485 -1.719792,-5.953125 0.176657,-2.733818 0.353041,-5.467792 0.529167,-8.202083 0.08846,-2.381033 0.176654,-4.762235 0.264583,-7.14375 0.132559,-0.661207 0.264848,-1.322652 0.396875,-1.984375 -0.176128,-0.991941 -0.352512,-1.98411 -0.529167,-2.976562 0.3751,-0.749404 0.749917,-1.543138 1.124479,-2.315105 0.463296,-0.617108 0.926307,-1.234458 1.389063,-1.852083 0.860179,-0.793501 1.720056,-1.587235 2.579687,-2.38125 0.794031,-0.595058 1.587765,-1.19036 2.38125,-1.785937 0.683787,-0.440717 1.36728,-0.881679 2.050521,-1.322917 0.816081,-0.33047 1.631863,-0.661194 2.447396,-0.992187 0.617638,-0.13203 1.234988,-0.264319 1.852083,-0.396875 0.771983,-0.04383 1.543667,-0.08793 2.315104,-0.132292 z" />
      <path
         sodipodi:nodetypes="sccccccccccccccccccccccccccccccccccccccccss"
         inkscape:original-d="m 35.117575,73.887432 c 1.008201,-0.5037 2.016137,-1.007668 3.02381,-1.5119 1.4807,-0.472214 2.961079,-0.94467 4.441222,-1.41741 1.291709,-0.25172 2.5831,-0.5037 3.874254,-0.75595 1.165714,-0.0942 2.331116,-0.18872 3.496281,-0.28349 1.354706,2.7e-4 2.772089,2.7e-4 4.157734,0 1.228714,0.25226 2.457113,0.50424 3.685272,0.75596 1.102717,0.47274 2.20512,0.9452 3.30729,1.41741 0.69324,0.59874 1.38618,1.19719 2.07887,1.79538 0.44125,0.63024 0.88221,1.32319 1.32292,1.98438 0.37824,0.88223 0.75621,1.76415 1.13392,2.64583 0.28376,0.81923 0.56723,1.63817 0.85045,2.45685 0.25226,0.85073 0.50423,1.70116 0.75595,2.55134 0.12626,1.07122 0.25225,2.14213 0.37798,3.2128 0.0318,1.00822 0.0633,2.01613 0.0945,3.0238 0.0318,0.94523 0.0633,1.89015 0.0945,2.83483 -0.0942,1.29171 -0.18873,2.583097 -0.28349,3.874247 -0.28322,0.85073 -0.5667,1.76416 -0.85044,2.64584 -0.40922,0.88222 -0.81869,1.764151 -1.22842,2.645831 -0.8502,0.75623 -1.70063,1.51217 -2.55134,2.26786 -0.62971,0.53574 -1.25966,1.07119 -1.88989,1.60639 -0.91319,0.53574 -1.826618,1.0712 -2.740323,1.6064 -1.03919,0.63024 -2.078603,1.26019 -3.118302,1.88988 -1.228183,0.53575 -2.456582,1.0712 -3.68527,1.6064 -1.511671,0.69324 -3.023545,1.38618 -4.535713,2.07887 -1.070692,0.34675 -2.141601,0.69322 -3.212801,1.03944 -1.165182,0.34674 -2.330585,0.69322 -3.496278,1.03943 -1.732161,0.37825 -3.464515,0.75622 -5.197171,1.13393 -0.724204,0.12626 -1.448644,0.25225 -2.173364,0.37798 0.504243,-1.29118 1.008202,-2.58258 1.511906,-3.87426 0.283752,-1.57467 0.567227,-3.14954 0.850444,-4.7247 -0.03123,-1.22819 -0.06273,-2.45658 -0.09449,-3.68527 -0.09423,-1.25968 -0.188724,-2.58257 -0.283482,-3.87426 -0.15723,-0.724201 -0.314715,-1.385641 -0.472469,-2.078861 -0.314722,-1.10219 -0.629698,-2.2046 -0.944941,-3.30729 -0.188728,-0.62971 -0.377712,-1.259657 -0.566965,-1.889887 0.126259,-1.51167 0.252248,-3.02354 0.377975,-4.53571 0.06326,-1.38568 0.126256,-2.77156 0.18899,-4.15774 0.157758,-1.51167 0.252248,-3.02354 0.377976,-4.53571 0.126259,-0.8817 0.252248,-1.76363 0.377975,-2.64584 -0.006,-0.554111 -0.0189,-1.66309 -0.0189,-1.66309 0,0 0.290043,-0.900574 0.434672,-1.351272 0.176654,-0.06588 0.353036,-0.132028 0.529157,-0.198438 z"
         inkscape:path-effect="#path-effect916"
         id="path876"
         d="m 35.621596,73.635422 c 0.50402,-0.252009 1.511957,-0.755976 2.756172,-1.244198 1.244216,-0.488223 2.724593,-0.960684 4.110541,-1.322907 1.385947,-0.362223 2.677338,-0.614202 3.905789,-0.787432 1.228451,-0.173231 2.393855,-0.267726 3.653803,-0.314964 1.259947,-0.04724 2.67733,-0.04724 3.984531,0.07879 1.3072,0.126028 2.535599,0.378009 3.701043,0.740279 1.165443,0.36227 2.267847,0.834728 3.165534,1.370256 0.897686,0.535528 1.590629,1.133975 2.150288,1.753069 0.55966,0.619093 1.015163,1.302347 1.424606,2.074064 0.409444,0.771717 0.787408,1.653639 1.118126,2.504095 0.330718,0.850456 0.614197,1.669393 0.881925,2.504098 0.267727,0.834704 0.519705,1.685132 0.708664,2.645821 0.18896,0.960688 0.314951,2.031598 0.393685,3.071034 0.07873,1.039436 0.110234,2.047346 0.141734,3.023796 0.0315,0.976451 0.063,1.921371 0.03149,3.039549 -0.03151,1.118179 -0.126007,2.409568 -0.310427,3.481942 -0.18442,1.072374 -0.477072,1.982856 -0.823553,2.864784 -0.34648,0.881927 -0.755948,1.763864 -1.38588,2.582744 -0.629932,0.81889 -1.480363,1.57483 -2.220571,2.22054 -0.740208,0.64571 -1.370157,1.18117 -2.141838,1.71662 -0.77168,0.53546 -1.685109,1.07092 -2.661559,1.65364 -0.976451,0.58272 -2.015865,1.21267 -3.149782,1.79538 -1.133916,0.58271 -2.362313,1.11817 -3.732496,1.73239 -1.370184,0.61422 -2.882057,1.30716 -4.173464,1.82688 -1.291408,0.51972 -2.362316,0.8662 -3.480503,1.21268 -1.118186,0.34648 -2.283592,0.69295 -3.732505,1.05519 -1.448913,0.36223 -3.181268,0.7402 -4.40969,0.99219 -1.228422,0.25199 -1.952862,0.37798 -2.063234,-0.20466 -0.110372,-0.58263 0.393588,-1.87403 0.787324,-3.30717 0.393736,-1.43314 0.677212,-3.00801 0.803226,-4.40966 0.126013,-1.40164 0.09452,-2.63003 0.03267,-3.8743 -0.06184,-1.24426 -0.158628,-2.56698 -0.288,-3.57414 -0.129373,-1.00716 -0.280052,-1.670147 -0.516281,-2.567849 -0.236228,-0.897702 -0.551203,-2.000112 -0.803186,-2.866312 -0.251983,-0.866199 -0.440967,-1.496146 -0.472522,-2.567133 -0.03155,-1.070988 0.09443,-2.582858 0.188933,-4.031777 0.0945,-1.448919 0.157495,-2.834799 0.252095,-4.285033 0.0946,-1.450235 0.220372,-2.959498 0.346359,-4.156442 0.125987,-1.196944 0.251977,-2.078874 0.31184,-2.797012 0.05986,-0.718138 0.05356,-1.272757 0.04726,-1.82712 0.144891,-0.450424 0.289726,-0.900676 0.450466,-1.159075 0.160739,-0.258398 0.337123,-0.324543 0.425243,-0.357589 0.08812,-0.03305 0.08812,-0.03305 0.592142,-0.285056 z"
         style="fill:#cccccc;stroke:#000000;stroke-width:0.264583px;stroke-linecap:butt;stroke-linejoin:miter;stroke-opacity:1" />
      <circle
         r="5.5458426"
         cy="85.318886"
         cx="51.576485"
         id="path44"
         style="fill:#000000;stroke:#000000;stroke-width:0.264583" />
      <circle
         r="2.9399648"
         cy="85.519348"
         cx="48.970612"
         id="path42"
         style="fill:#ffffff;stroke:#000000;stroke-width:0.264583" />
      <path
         style="fill:#ffd42a;fill-opacity:1;stroke:#000000;stroke-width:0.269468px;stroke-linecap:butt;stroke-linejoin:miter;stroke-opacity:1"
         d="m 64.341226,146.99678 c 0.26959,-0.0449 2.066872,0.44888 3.841707,0.87533 1.774836,0.42645 3.527156,0.78557 4.807731,1.05492 1.280576,0.26935 2.089337,0.44891 3.48225,0.6958 1.392912,0.24689 3.369887,0.56112 5.439989,0.87582 2.070102,0.3147 4.220398,0.62799 6.422095,0.94223 2.201697,0.31424 4.448261,0.62847 6.290483,0.80801 1.842221,0.17955 3.280023,0.22444 4.920057,0.22443 1.640032,-1e-5 3.482212,-0.0449 5.099772,-0.13469 1.61756,-0.0898 3.01043,-0.22445 4.67293,-0.44892 1.6625,-0.22446 3.59454,-0.53869 5.90855,-1.09985 2.31401,-0.56115 5.00988,-1.36916 7.21156,-2.10986 2.20168,-0.74071 3.90907,-1.41406 5.16716,-1.95275 1.25809,-0.53869 2.06686,-0.9427 2.67346,-0.67315 0.6066,0.26954 1.01099,1.21223 1.34796,2.15493 0.33697,0.94271 0.60656,1.88541 0.94355,3.18725 0.33698,1.30185 0.74136,2.96276 1.10081,4.53395 0.35945,1.57118 0.67397,3.05255 0.91832,4.48941 0.24435,1.43685 0.42961,2.91752 0.5644,4.06224 0.1348,1.14472 0.22466,1.99762 -0.71883,2.49126 -0.94348,0.49365 -2.92046,0.62831 -4.8975,0.80787 -1.97703,0.17956 -3.95401,0.40402 -6.15568,0.35916 -2.20166,-0.0449 -4.62796,-0.3591 -7.21158,-0.78555 -2.58362,-0.42646 -5.32443,-0.96513 -8.06531,-1.63848 -2.74088,-0.67336 -5.48169,-1.48137 -8.132709,-2.40162 -2.651019,-0.92025 -5.212103,-1.95272 -8.626989,-3.47901 -3.414887,-1.52629 -7.683359,-3.54633 -11.008363,-5.16241 -3.325003,-1.61607 -5.706359,-2.82809 -7.832532,-3.83467 -2.126173,-1.00658 -4.029535,-1.82155 -5.602171,-2.51736 -1.572636,-0.6958 -2.830711,-1.27937 -2.56112,-1.32429 z"
         id="path920"
         inkscape:path-effect="#path-effect922"
         inkscape:original-d="m 62.813209,146.45797 c 1.797557,0.49407 3.594841,0.98786 5.391859,1.4814 1.752659,0.3594 3.504978,0.71852 5.257062,1.07737 0.809065,0.17984 1.617828,0.35939 2.426337,0.53869 1.977324,0.31451 3.9543,0.62873 5.931044,0.9427 2.157057,0.3594 4.313757,0.62874 6.470231,0.9427 2.246922,0.31451 4.493486,0.62874 6.739823,0.94271 1.438128,0.0452 2.875929,0.0901 4.313489,0.13467 1.842526,-0.0446 3.684706,-0.0895 5.526656,-0.13467 1.39319,-0.13441 2.78606,-0.26908 4.17869,-0.40401 1.93239,-0.31398 3.86443,-0.62821 5.79625,-0.94272 2.69625,-0.80777 5.39212,-1.61579 8.08779,-2.42409 1.70772,-0.6731 3.41511,-1.34645 5.12226,-2.02008 0.80906,-0.40375 1.61783,-0.80776 2.42633,-1.21205 0.40467,0.943 0.80906,1.88568 1.21318,2.82812 0.26986,0.94298 0.53945,1.88568 0.80878,2.8281 0.40467,1.66127 0.80904,3.32218 1.21316,4.98288 0.3148,1.48168 0.62932,2.96305 0.94357,4.44417 0.18001,1.39191 0.35974,2.87327 0.53919,4.3095 0.0902,0.85321 0.18001,1.70611 0.26959,2.55877 -1.97678,0.13495 -3.95376,0.26961 -5.93104,0.40401 -1.97678,0.22474 -3.95376,0.44918 -5.93104,0.67337 -2.42611,-0.31397 -4.85241,-0.62821 -7.27901,-0.94271 -2.74065,-0.53842 -5.48146,-1.0771 -8.22258,-1.61606 -2.74065,-0.80778 -5.48146,-1.6158 -8.222587,-2.4241 -2.560919,-1.03223 -5.122,-2.0647 -7.683404,-3.09745 -4.26837,-2.01985 -8.53684,-4.0399 -12.805664,-6.06025 -2.381183,-1.2118 -4.76254,-2.42382 -7.144213,-3.63614 -1.886919,-0.76288 -3.774032,-1.6158 -5.661452,-2.42409 -1.257856,-0.58332 -2.51593,-1.16689 -3.774301,-1.75074 z" />
      <path
         style="fill:#5555ff;fill-opacity:1;stroke:#000000;stroke-width:0.264583px;stroke-linecap:butt;stroke-linejoin:miter;stroke-opacity:1"
         d="m 136.19432,174.04102 c 0.11021,1.15753 0.2866,3.31829 0.32464,5.61601 0.038,2.29772 -0.0624,4.73631 0.15284,5.99022 0.21523,1.25391 0.74637,1.33139 1.70092,1.76782 0.95454,0.43643 2.33164,1.23157 4.27708,2.42297 1.94543,1.1914 4.45884,2.77882 7.41339,4.63092 2.95455,1.8521 6.34997,3.96873 9.57534,5.98729 3.22537,2.01856 6.34373,3.97867 9.18802,5.78667 2.84429,1.808 5.44598,3.48367 7.8934,5.00503 2.44742,1.52136 4.74043,2.88834 7.02735,4.27364 2.28693,1.38529 4.59224,2.80395 6.70893,4.08278 2.11669,1.27882 4.05693,2.42533 5.27485,3.15017 1.21793,0.72483 1.71348,1.02796 2.0002,1.17944 0.28673,0.15147 0.3647,0.15147 0.44249,0.0814 0.0778,-0.0701 0.15576,-0.21043 0.15152,-0.35271 -0.004,-0.14227 -0.10466,-0.30963 -1.39087,-1.44781 -1.28621,-1.13818 -3.76509,-3.25847 -6.33758,-5.39443 -2.5725,-2.13595 -5.23846,-4.28743 -8.36443,-6.81315 -3.12598,-2.52573 -6.71177,-5.42555 -11.18724,-9.02576 -4.47548,-3.60021 -9.84033,-7.90058 -14.74306,-11.8314 -4.90273,-3.93082 -9.36988,-7.51339 -12.5008,-10.03797 -3.13092,-2.52458 -4.93888,-4.00181 -5.84301,-4.74055 -0.90414,-0.73875 -1.96247,-1.79708 -1.94037,-1.71975 0.0221,0.0773 0.0662,0.23167 0.17639,1.38921 z"
         id="path969"
         inkscape:path-effect="#path-effect971"
         inkscape:original-d="m 136.12812,173.0375 c 0.17666,2.16103 0.35304,4.32179 0.52917,6.48229 -0.10001,2.43497 -0.20044,4.87356 -0.30082,7.30397 0.53053,0.0776 1.06167,0.1551 1.5934,0.23244 1.37735,0.79537 2.75444,1.59053 4.13138,2.38546 2.51394,1.58785 5.02735,3.17527 7.54062,4.7625 3.39582,2.11698 6.79124,4.2336 10.18646,6.35 3.04304,1.94059 6.17388,3.88083 9.26042,5.82084 2.60205,1.67599 5.20374,3.35165 7.80521,5.02708 2.29336,1.36731 4.58637,2.73429 6.87916,4.10104 2.24927,1.4555 4.58638,2.82249 6.87917,4.23334 1.94058,1.14681 3.88082,2.29332 5.82083,3.43958 0.49584,0.30341 0.99139,0.60654 1.48669,0.90941 0.0782,-0.0153 0.15617,2.7e-4 0.23386,0 0.0782,-0.14005 0.15617,-0.28037 0.23386,-0.42095 -0.0933,-0.14005 -0.18682,-0.31155 -0.28063,-0.46772 -2.47871,-2.12012 -4.95759,-4.24041 -7.43678,-6.36101 -2.6658,-2.1513 -5.33176,-4.30278 -7.99804,-6.45456 -3.58567,-2.89967 -7.17146,-5.79949 -10.7576,-8.69963 -5.36481,-4.30028 -10.72967,-8.60065 -16.0949,-12.90137 -4.43159,-3.57169 -8.90737,-7.14349 -13.36146,-10.71563 -1.80775,-1.47702 -3.61571,-2.95425 -5.42396,-4.43177 l -1.05833,-1.05833 c 0.0444,0.15461 0.0885,0.30894 0.13229,0.46302 z"
         sodipodi:nodetypes="cccccccccccccccccccccccc" />
      <path
         style="fill:#88aa00;stroke:#000000;stroke-width:0.264583px;stroke-linecap:butt;stroke-linejoin:miter;stroke-opacity:1"
         d="m 65.237466,147.41232 c 0.89624,0.41554 2.6884,1.24647 4.73103,2.16907 2.042631,0.92259 4.335642,1.9368 6.34208,2.90697 2.006439,0.97016 3.726199,1.89618 5.335764,2.68992 1.609564,0.79374 3.108841,1.45519 4.564063,2.11666 1.455222,0.66147 2.866305,1.32291 4.586116,2.07257 1.719811,0.74965 3.748241,1.58748 5.512146,2.29304 1.763906,0.70556 3.263179,1.27881 4.938895,1.83001 1.67571,0.55121 3.52775,1.08036 5.29165,1.56543 1.76391,0.48507 3.43958,0.92603 5.31372,1.30084 1.87414,0.37481 3.94667,0.68349 5.67019,0.92826 1.72352,0.24476 3.09794,0.42561 4.92798,0.49173 1.83004,0.0661 4.11562,0.0176 6.05293,-0.15705 1.93732,-0.17461 3.61145,-0.49134 4.64772,-0.71183 1.03627,-0.2205 1.47723,-0.35279 1.77712,-0.38892 0.29989,-0.0361 0.45853,0.0237 0.63127,0.72414 0.17273,0.70042 0.35981,2.0412 0.59139,3.63182 0.23158,1.59061 0.51678,3.49195 0.71945,5.34726 0.20267,1.85531 0.32739,3.69498 0.37416,5.37878 0.0468,1.6838 0.0156,3.21167 2e-5,4.02238 -0.0156,0.81071 -0.0156,0.96663 -1.62131,0.88855 -1.60574,-0.0781 -4.81737,-0.3587 -7.60812,-0.77963 -2.79074,-0.42093 -5.16049,-0.98219 -7.45234,-1.63699 -2.29186,-0.6548 -4.5057,-1.40314 -6.64165,-2.38533 -2.13595,-0.98219 -4.19388,-2.19824 -6.2476,-3.43687 -2.05371,-1.23864 -4.05785,-2.47195 -5.89757,-3.61009 -1.839725,-1.13813 -3.49231,-2.1671 -5.098166,-3.13374 -1.605856,-0.96664 -3.164901,-1.87088 -4.677223,-2.85309 -1.512321,-0.98221 -2.97782,-2.04235 -4.448774,-3.1107 -1.470955,-1.06835 -2.987993,-2.17452 -4.469123,-3.2347 -1.48113,-1.06018 -2.94663,-2.08915 -4.427771,-3.22727 -1.481142,-1.13813 -2.977823,-2.38536 -4.52132,-3.6794 -1.543496,-1.29405 -3.133721,-2.63482 -4.458942,-3.74177 -1.325221,-1.10695 -2.385368,-1.98002 -3.230164,-2.72193 -0.844796,-0.74191 -1.47417,-1.35265 -1.788996,-1.65816 -0.314825,-0.3055 -0.314865,-0.3055 0.581375,0.11004 z"
         id="path926"
         inkscape:path-effect="#path-effect928"
         inkscape:original-d="m 64.341226,146.99678 c 1.792425,0.8312 3.584586,1.66213 5.376481,2.4928 2.293366,1.01452 4.586375,2.02874 6.879167,3.04271 1.720091,0.92632 3.439848,1.85235 5.159375,2.77812 1.4996,0.66174 2.998875,1.32319 4.497917,1.98438 1.411403,0.66174 2.822487,1.32318 4.233333,1.98437 2.028777,0.83813 4.057208,1.67596 6.085416,2.51355 1.499601,0.57354 2.998875,1.14679 4.497915,1.71979 1.85239,0.52944 3.70443,1.0586 5.55625,1.5875 1.67599,0.44124 3.35166,0.88221 5.02709,1.32291 2.07287,0.30896 4.1454,0.61763 6.2177,0.92605 1.37474,0.18112 2.74916,0.36196 4.12335,0.54255 2.28593,-0.0483 4.5715,-0.0969 6.85686,-0.14568 1.5878,-0.30842 3.26346,-0.61709 4.89479,-0.92604 0.44125,-0.13203 0.88221,-0.26432 1.32292,-0.39688 0.15892,0.0601 0.31756,0.11996 0.47595,0.17955 0.18736,1.34109 0.37444,2.68187 0.56126,4.02241 0.28091,1.84 0.56153,3.74203 0.8419,5.61265 0.125,1.84001 0.24972,3.67968 0.37418,5.51912 -0.0309,1.52819 -0.0621,3.05605 -0.0935,4.58367 2.6e-4,0.0938 2.6e-4,0.24972 0,0.37418 -3.21149,-0.28037 -6.42312,-0.561 -9.63507,-0.8419 -2.36957,-0.56101 -4.73931,-1.12227 -7.10937,-1.6838 -2.21366,-0.7481 -4.4275,-1.49644 -6.64165,-2.24506 -2.05775,-1.21584 -4.11568,-2.43189 -6.17392,-3.64823 -2.05775,-1.24702 -4.05332,-2.49425 -6.08038,-3.74177 -1.652388,-1.02875 -3.304973,-2.05772 -4.957854,-3.08697 -1.558838,-0.90401 -3.117879,-1.80826 -4.677217,-2.71278 -1.465292,-1.05993 -2.93079,-2.12008 -4.396584,-3.18051 -1.465291,-1.09111 -2.993152,-2.18244 -4.490127,-3.27405 -1.465292,-1.02874 -2.93079,-2.05771 -4.396584,-3.08696 -1.496475,-1.24702 -2.993154,-2.49426 -4.490127,-3.74178 -1.590022,-1.34056 -3.180244,-2.68134 -4.77076,-4.0224 -1.059927,-0.87284 -2.120075,-1.7459 -3.180509,-2.61924 -0.629137,-0.61051 -1.258512,-1.22125 -1.888162,-1.83226 z" />
      <path
         style="fill:#f94851;fill-opacity:1;stroke:#000000;stroke-width:0.264583px;stroke-linecap:butt;stroke-linejoin:miter;stroke-opacity:1"
         d="m 137.94687,199.70163 c 1.46568,0.63929 4.39675,1.91773 7.18751,3.13382 2.79076,1.21608 5.44113,2.36977 8.04161,3.53049 2.60048,1.16072 5.22607,2.36279 8.30344,3.78434 3.07737,1.42154 6.62006,3.06858 9.89414,4.5653 3.27409,1.49673 6.26743,2.8375 8.99584,4.08477 2.7284,1.24728 5.19168,2.40097 7.23409,3.27403 2.0424,0.87307 3.6638,1.46551 4.8487,1.88646 1.1849,0.42094 1.93324,0.67039 2.52568,0.82627 0.59244,0.15588 1.02898,0.21824 1.38421,0.21893 0.35523,6.9e-4 0.64247,-0.0631 0.85686,-0.15363 0.21438,-0.0905 0.3779,-0.22131 0.42471,-0.36146 0.0468,-0.14014 -0.0155,-0.29604 -0.31168,-0.56894 -0.29614,-0.27289 -0.82621,-0.66265 -2.93099,-1.9801 -2.10478,-1.31746 -5.78412,-3.56248 -9.47916,-5.81536 -3.69503,-2.25288 -7.40555,-4.51349 -11.81778,-7.26528 -4.41223,-2.75179 -9.52589,-5.9946 -14.35906,-9.02702 -4.83316,-3.03243 -9.38557,-5.85429 -11.99702,-7.46794 -2.61145,-1.61364 -3.28184,-2.01899 -4.51872,-2.75693 -1.23687,-0.73795 -3.04016,-1.80843 -3.94198,-2.34378 -0.90182,-0.53534 -0.90182,-0.53534 -0.92001,-0.0779 -0.0182,0.45742 -0.0546,1.37201 -0.0651,2.28926 -0.0105,0.91725 0.005,1.86826 -0.0336,2.99859 -0.039,1.13033 -0.13252,2.45551 -0.27285,3.58583 -0.14034,1.13032 -0.32742,2.06574 -0.42095,2.53336 -0.0935,0.46762 -0.0935,0.46762 1.37214,1.10691 z"
         id="path973"
         inkscape:path-effect="#path-effect975"
         inkscape:original-d="m 136.48118,199.06234 c 2.93132,1.2787 5.86238,2.55715 8.79317,3.83532 2.65074,1.154 5.30111,2.30769 7.95127,3.46114 2.55719,1.154 5.17638,2.37006 7.76418,3.55468 3.55502,1.6841 7.10963,3.3055 10.66405,4.95785 2.99375,1.3411 5.9871,2.68187 8.98026,4.02241 2.46365,1.154 4.92693,2.30769 7.39,3.46114 1.62173,0.59273 3.24313,1.18516 4.86431,1.77734 0.74863,0.24972 1.49697,0.49917 2.24506,0.74836 0.43681,0.0626 0.87335,0.12499 1.30962,0.18709 0.2809,-0.0309 0.56153,-0.12447 0.8419,-0.18709 0.15617,-0.10887 0.31208,-0.24919 0.46772,-0.37418 -0.0621,-0.15565 -0.12446,-0.31155 -0.18709,-0.46772 -0.52983,-0.38951 -1.0599,-0.77927 -1.59025,-1.16931 -3.67922,-2.24484 -7.35856,-4.48986 -11.03823,-6.73519 -3.7104,-2.26043 -7.42092,-4.52104 -11.13178,-6.78196 -5.11359,-3.24267 -10.22725,-6.48548 -15.34127,-9.72861 -4.55232,-2.82171 -9.10472,-5.64358 -13.65747,-8.46576 -0.67015,-0.40511 -1.34054,-0.81046 -2.01121,-1.21608 -1.80309,-1.07026 -3.60638,-2.14074 -5.40997,-3.21151 2.6e-4,2.5e-4 2.6e-4,2.3e-4 1e-5,-4e-5 -0.0361,0.91489 -0.0725,1.82948 -0.10915,2.74383 0.0159,0.92013 0.0314,1.87115 0.0468,2.80633 -0.0933,1.3255 -0.18682,2.65068 -0.28063,3.97563 -0.18683,0.93573 -0.37392,1.87115 -0.56127,2.80633 z" />
      <path
         style="fill:#5555ff;fill-opacity:1;stroke:#000000;stroke-width:0.264583px;stroke-linecap:butt;stroke-linejoin:miter;stroke-opacity:1"
         d="m 137.38546,186.73022 c 0.0624,0.57701 0.1871,1.73072 0.21829,3.02406 0.0312,1.29335 -0.0312,2.72903 -0.078,4.17898 -0.0468,1.44995 -0.0779,2.91545 -0.18484,4.27217 -0.10691,1.35671 -0.29846,2.66566 -0.50115,3.72581 -0.20269,1.06016 -0.42096,1.90205 -0.7016,2.85308 -0.28064,0.95104 -0.62363,2.01119 -1.57449,2.26061 -0.95086,0.24942 -2.50991,-0.31184 -4.2405,-0.91989 -1.73059,-0.60805 -3.63261,-1.26284 -5.50598,-1.98991 -1.87338,-0.72707 -3.77048,-1.54915 -5.50106,-2.42221 -1.73059,-0.87307 -3.32081,-1.80849 -5.03581,-2.83749 -1.715,-1.029 -3.55467,-2.15151 -5.64857,-3.48516 -2.09389,-1.33366 -4.48539,-2.90702 -6.85521,-4.63759 -2.369822,-1.73057 -4.739564,-3.6326 -7.226405,-5.69958 -2.486841,-2.06698 -5.121438,-4.3252 -7.67835,-6.69501 -2.556913,-2.3698 -5.05138,-4.86427 -7.57712,-7.71739 -2.525739,-2.85312 -5.082566,-6.06474 -6.864354,-8.49421 -1.781788,-2.42946 -2.833109,-4.1498 -3.815343,-5.8648 -0.982234,-1.71499 -1.917661,-3.46112 -2.650427,-4.80972 -0.732766,-1.34861 -1.262837,-2.29962 -1.499755,-2.97873 -0.236918,-0.67911 -0.180193,-1.08815 0.264303,-0.90104 0.444496,0.1871 1.276557,0.96933 2.160336,1.75802 0.883779,0.78869 1.819204,1.58381 2.894976,2.48808 1.075772,0.90427 2.291825,1.91764 3.515708,2.93884 1.223882,1.0212 2.455527,2.05017 3.835326,3.13373 1.379799,1.08356 2.907659,2.22166 5.234948,3.90304 2.327288,1.68139 5.453846,3.90596 7.689657,5.45924 2.235811,1.55328 3.580747,2.43521 5.201342,3.43842 1.620596,1.00322 3.516734,2.12767 5.710598,3.45061 2.19387,1.32293 4.68531,2.84426 6.57048,3.97976 1.88517,1.13551 3.16396,1.88515 4.77353,2.66786 1.60957,0.78271 3.54981,1.5985 5.38079,2.2679 1.83098,0.6694 3.59297,1.20469 5.469,1.64597 1.87603,0.44129 3.87865,0.7934 5.71972,1.05797 1.84106,0.26457 3.51672,0.44096 4.89547,0.48817 1.37875,0.0472 2.46056,-0.0347 3.00135,-0.0756 0.54079,-0.041 0.54075,-0.041 0.60313,0.53605 z"
         id="path930"
         inkscape:path-effect="#path-effect932"
         inkscape:original-d="m 137.32308,186.15322 c 0.12499,1.15398 0.24972,2.30769 0.37418,3.46114 -0.0309,1.43464 -0.12446,2.86896 -0.18709,4.30304 -0.0309,1.46582 -0.0621,2.93132 -0.0935,4.39659 -0.18683,1.24754 -0.37392,2.55714 -0.56127,3.83532 -0.21801,0.84217 -0.43627,1.68406 -0.65481,2.52569 -0.34274,1.06046 -0.68573,2.12061 -1.02899,3.18051 -1.55884,-0.56101 -3.11788,-1.12227 -4.67721,-1.6838 -1.90185,-0.65456 -3.80388,-1.30935 -5.70621,-1.96443 -1.83948,-0.81047 -3.74151,-1.62117 -5.61266,-2.43215 -1.59002,-0.9352 -3.18024,-1.87062 -4.77076,-2.80633 -1.83948,-1.12229 -3.67915,-2.2448 -5.51912,-3.3676 -2.33839,-1.55884 -4.73931,-3.11788 -7.10936,-4.67722 -2.369579,-1.90184 -4.739319,-3.80387 -7.109375,-5.7062 -2.619028,-2.21366 -5.238218,-4.48986 -7.857723,-6.73519 -2.494301,-2.4943 -4.988766,-4.98877 -7.483546,-7.48355 -2.556666,-3.21149 -5.113494,-6.42311 -7.670636,-9.63506 -0.997561,-1.65239 -2.057712,-3.36734 -3.086962,-5.0514 -0.935199,-1.74593 -1.870623,-3.49206 -2.806333,-5.23848 -0.52983,-0.95079 -1.059902,-1.9018 -1.590251,-2.8531 0.05672,-0.40683 0.113445,-0.81587 0.169772,-1.22422 0.832361,0.78253 1.664423,1.56476 2.496241,2.34675 0.935725,0.79541 1.871152,1.59052 2.806329,2.38538 1.216367,1.01368 2.432418,2.02706 3.648229,3.04019 1.231955,1.02927 2.463599,2.05824 3.695001,3.08696 1.528186,1.13841 3.056046,2.27651 4.583674,3.41437 3.126946,2.22492 6.253503,4.44949 9.37986,6.67384 1.345258,0.88223 2.690196,1.76415 4.034895,2.64583 1.896484,1.12477 3.792625,2.24922 5.688545,3.37344 2.49181,1.52165 4.98325,3.04297 7.47448,4.56406 1.27911,0.74993 2.5579,1.49957 3.83645,2.24896 1.94059,0.81608 3.88083,1.63186 5.82084,2.4474 1.72009,0.52944 3.48394,1.05859 5.22552,1.5875 2.00673,0.3751 4.01311,0.70582 6.01927,1.05833 1.67599,0.17666 3.35165,0.35304 5.02708,0.52917 1.08212,-0.0816 2.16392,-0.16356 3.24548,-0.24574 z"
         sodipodi:nodetypes="scccccccccccccccccccccccccccccccccccs" />
      <path
         style="fill:none;stroke:#000000;stroke-width:0.264583px;stroke-linecap:butt;stroke-linejoin:miter;stroke-opacity:1"
         d="m 62.441666,131.7625 c 0,0.22049 0.03118,0.44319 0,0.66146 -0.06388,0.44718 -0.123473,0.11465 -0.264583,0.39687 -0.163526,0.32706 0.172391,2.07657 0,2.24896 -0.123214,0.12322 -0.132292,-0.0104 -0.132292,0.26459 l 0.264584,5.29167 0.79375,4.23333 1.238101,2.66657"
         id="path938" />
      <path
         style="fill:#000000;fill-opacity:0;stroke:none"
         d="m 731.64208,845.62548 c 0,-0.5063 -1.4625,-1.2388 -3.25,-1.62778 -1.7875,-0.38898 -4.13763,-1.32473 -5.22251,-2.07945 -1.08487,-0.75473 -2.65987,-1.3875 -3.5,-1.40616 -0.84012,-0.0187 -3.32749,-0.90339 -5.52749,-1.96607 -2.2,-1.06268 -4.29739,-1.94741 -4.66087,-1.96607 -0.36347,-0.0187 -4.02407,-1.60893 -8.13465,-3.53393 -4.11058,-1.925 -7.97569,-3.5 -8.58913,-3.5 -0.61344,0 -1.11535,-0.34013 -1.11535,-0.75585 0,-0.41572 -2.3625,-1.81967 -5.25,-3.1199 -2.8875,-1.30022 -8.86581,-4.11009 -13.28514,-6.24415 -4.41933,-2.13405 -8.58183,-3.8801 -9.25,-3.8801 -0.66817,0 -1.21486,-0.45 -1.21486,-1 0,-0.55 -0.4717,-1 -1.04823,-1 -0.57653,0 -6.76403,-2.73731 -13.75,-6.08292 -6.98597,-3.3456 -14.27677,-6.8331 -16.20177,-7.75 -1.925,-0.91689 -3.725,-1.93937 -4,-2.27217 -0.275,-0.3328 -2.3,-1.18551 -4.5,-1.89491 -2.2,-0.7094 -4.225,-1.56211 -4.5,-1.89491 -0.275,-0.3328 -2.075,-1.35658 -4,-2.27506 -1.925,-0.91849 -9.18544,-4.40599 -16.13432,-7.75 -6.94887,-3.34402 -13.13637,-6.08003 -13.75,-6.08003 -0.61362,0 -1.11568,-0.45 -1.11568,-1 0,-0.55 -0.5625,-1.01407 -1.25,-1.03127 -0.6875,-0.0172 -3.5,-1.13809 -6.25,-2.49086 -2.75,-1.35277 -5.5625,-2.4637 -6.25,-2.46873 -0.6875,-0.005 -1.25,-0.42338 -1.25,-0.92968 0,-0.5063 -1.35,-1.21706 -3,-1.57946 -1.65,-0.3624 -3,-1.07316 -3,-1.57945 0,-0.5063 -0.45172,-0.92055 -1.00382,-0.92055 -0.55211,0 -5.25135,-2.025 -10.44277,-4.5 -5.19142,-2.475 -9.9147,-4.5 -10.49618,-4.5 -0.58148,0 -1.05723,-0.41424 -1.05723,-0.92054 0,-0.5063 -1.35,-1.21706 -3,-1.57946 -1.65,-0.3624 -3,-1.07316 -3,-1.57945 0,-0.5063 -0.55604,-0.92055 -1.23565,-0.92055 -0.6796,0 -3.6046,-1.19858 -6.5,-2.66352 l -5.26435,-2.66352 v -18.85087 -18.85088 l 5.75,3.03994 c 3.1625,1.67197 6.98325,3.81595 8.49055,4.7644 1.5073,0.94845 8.4823,5.26929 15.5,9.60187 7.0177,4.33258 15.00945,9.31749 17.75945,11.07757 2.75,1.76009 9.275,5.83108 14.5,9.04665 5.225,3.21556 11.75,7.26758 14.5,9.00448 44.93028,28.37797 80.816,50.71217 106,65.97125 32.34324,19.59689 38.4431,23.52399 38.47865,24.77263 0.0117,0.4125 -2.22865,0.75 -4.97865,0.75 -2.75,0 -5,-0.41425 -5,-0.92054 z"
         id="path977"
         transform="scale(0.26458333)" />
      <path
         inkscape:original-d="m 9.5424792,95.021441 c 0.09059,-1.608543 0.1809111,-3.217342 0.2709603,-4.826396 0.3131255,-1.518992 0.6245705,-3.101161 0.9364495,-4.652132 0.534261,-1.492391 1.005249,-2.983588 1.507467,-4.475768 0.788983,-1.372023 1.577663,-2.744249 2.36609,-4.116749 0.859652,-1.027026 1.719,-2.054255 2.578094,-3.081778 0.836548,-0.64842 1.672791,-1.297084 2.508782,-1.946011 1.061875,-0.432886 2.123438,-0.866016 3.184751,-1.299409 1.035975,-0.18026 2.07164,-0.360762 3.107054,-0.541539 1.201116,0.162651 2.401917,0.325029 3.602469,0.487163 0.989767,0.576912 1.979221,1.153551 2.968429,1.729946 0.611875,0.585308 1.223456,1.170333 1.834778,1.755114 0.03176,-4.45e-4 0.06325,-0.0011 0.09447,-0.0021 -0.190115,1.359263 -0.380492,2.718201 -0.571146,4.076916 -0.06345,1.387959 -0.127172,2.775605 -0.191163,4.163006 -0.09355,1.451633 -0.185963,2.965936 -0.279349,4.448513 -0.03685,1.166825 -0.07398,2.333335 -0.111369,3.499612 -0.07463,0.884104 -0.149537,1.767913 -0.224711,2.651478 0.303258,0.875708 0.606232,1.751128 0.908942,2.626307 0.335446,0.906501 0.670607,1.812718 1.005504,2.718691 0.180787,1.035964 0.361298,2.071625 0.541541,3.107055 0.01355,0.59859 0.02822,1.25986 0.04193,1.88941 0.124095,1.32079 0.247913,2.64125 0.371466,3.96149 -0.281093,1.51881 -0.56105,3.10028 -0.841979,4.65003 -0.232088,0.88759 -0.464438,1.77489 -0.697062,2.66195 -0.23838,0.60418 -0.47702,1.20807 -0.715934,1.81172 -0.03191,-0.0305 -0.06411,-0.0613 -0.09656,-0.0924 -1.264955,-0.22371 -2.467149,-0.44907 -3.701131,-0.674 -1.015126,-0.32377 -2.030482,-0.6478 -3.046127,-0.97208 -0.865359,-0.67368 -1.792536,-1.28321 -2.689208,-1.92519 -0.710701,-0.80313 -1.42304,-1.66947 -2.134965,-2.50459 -0.553944,-0.83812 -1.108136,-1.67646 -1.662609,-2.51507 -0.406273,-1.28248 -0.812801,-2.56517 -1.219607,-3.84814 -0.05637,-1.13272 -0.113026,-2.26565 -0.169942,-3.39885 0.05347,-0.442014 0.106664,-0.884274 0.159592,-1.326787 1.388665,0.09547 2.777003,0.190684 4.165099,0.28563 0.968103,-0.399287 1.935895,-0.798828 2.903438,-1.198643 0.840041,-0.490968 1.679779,-0.98218 2.519264,-1.473667 0.246607,-0.257254 0.491535,-0.577747 0.736896,-0.867002 0.08915,-0.253761 0.176633,-0.57076 0.264544,-0.856531 -0.528085,0.327047 -1.056421,0.65383 -1.585038,0.980349 -0.752716,0.142995 -1.505672,0.285726 -2.258912,0.428203 -0.72472,-0.01512 -1.449679,-0.03054 -2.174926,-0.04626 -0.946552,-0.07322 -1.894736,-0.209733 -2.84251,-0.314991 -0.763899,-0.360861 -1.529433,-0.78494 -2.294555,-1.177801 -0.574253,-0.333562 -1.148753,-0.667368 -1.723536,-1.001444 -0.544858,-0.428727 -1.089966,-0.857709 -1.635354,-1.286944 -0.06411,-0.06129 -0.128486,-0.122909 -0.193135,-0.18475 -0.684142,0.393525 -1.368529,0.786767 -2.053198,1.179774 -0.747824,0.363431 -1.495889,0.726588 -2.244238,1.089488 -0.406316,0.135308 -0.8128857,0.270351 -1.219734,0.405141 z"
         inkscape:path-effect="#path-effect918"
         id="path872"
         d="m 9.5876325,94.217162 c 0.045153,-0.80428 0.1354735,-2.413079 0.3336661,-3.977806 0.1981924,-1.564727 0.5164004,-3.145535 0.9254294,-4.671966 0.409029,-1.526431 0.908089,-3.008173 1.553693,-4.440311 0.645605,-1.432137 1.434287,-2.804362 2.25834,-4.004154 0.824053,-1.199792 1.683396,-2.227026 2.531247,-3.065024 0.847851,-0.837998 1.684097,-1.486658 2.633079,-2.027577 0.948981,-0.54092 2.010545,-0.974048 3.059227,-1.280864 1.048683,-0.306817 2.084346,-0.487326 3.202653,-0.496348 1.118306,-0.009 2.319106,0.153363 3.414271,0.522957 1.095166,0.369595 2.084621,0.946231 2.885142,1.527119 0.80052,0.580888 1.4121,1.165914 1.733639,1.457951 0.321538,0.292037 0.353027,0.291337 0.273432,0.9706 -0.0796,0.679264 -0.269972,2.038202 -0.397015,3.411553 -0.127043,1.373352 -0.190763,2.760998 -0.2682,4.180596 -0.07744,1.419599 -0.17252,2.933734 -0.237636,4.25844 -0.06512,1.324705 -0.102239,2.491215 -0.158259,3.516398 -0.05602,1.025182 -0.130922,1.908991 -0.01682,2.788668 0.114106,0.879678 0.417081,1.755097 0.736162,2.645938 0.319081,0.890841 0.654243,1.797057 0.912054,2.768016 0.25781,0.970959 0.438319,2.006622 0.535193,2.823612 0.09687,0.817 0.111548,1.47827 0.180459,2.45344 0.06891,0.97518 0.19273,2.29564 0.117026,3.71569 -0.0757,1.42005 -0.361856,3.00039 -0.61837,4.21905 -0.256513,1.21866 -0.488863,2.10596 -0.724368,2.85155 -0.235505,0.7456 -0.474144,1.34949 -0.609387,1.63612 -0.135242,0.28663 -0.167436,0.25582 -0.815565,0.12522 -0.648128,-0.13061 -1.851456,-0.34975 -2.976004,-0.62407 -1.124547,-0.27433 -2.139906,-0.59835 -3.093253,-1.07935 -0.953346,-0.48099 -1.854855,-1.12638 -2.650998,-1.85536 -0.796143,-0.72897 -1.523626,-1.5824 -2.156581,-2.41901 -0.632955,-0.83661 -1.187147,-1.67495 -1.66757,-2.73549 -0.480423,-1.06055 -0.886952,-2.34324 -1.118586,-3.5511 -0.231635,-1.20787 -0.288282,-2.3408 -0.290026,-3.12843 -0.0017,-0.78763 0.05145,-1.22989 0.772405,-1.403512 0.720952,-0.173623 2.109291,-0.07841 3.287315,-0.230626 1.178024,-0.152211 2.145816,-0.551751 3.049583,-0.997137 0.903767,-0.445387 1.743505,-0.9366 2.278527,-1.317711 0.535022,-0.381111 0.795899,-0.688048 0.958378,-0.960955 0.162479,-0.272907 0.259478,-0.586967 0.03946,-0.566433 -0.220022,0.02053 -0.748361,0.347312 -1.388959,0.582076 -0.640599,0.234764 -1.393554,0.377495 -2.132503,0.441175 -0.738949,0.06368 -1.463908,0.04826 -2.298077,-0.01171 -0.834169,-0.05997 -1.785795,-0.16542 -2.635296,-0.410732 -0.849501,-0.245313 -1.627681,-0.644754 -2.297372,-1.007956 -0.66969,-0.363201 -1.244189,-0.697009 -1.80402,-1.078387 -0.559831,-0.381378 -1.104943,-0.810354 -1.409693,-1.055614 -0.30475,-0.245259 -0.369145,-0.306858 -0.743629,-0.141173 -0.374485,0.165686 -1.058868,0.558935 -1.775104,0.937148 -0.716236,0.378213 -1.464302,0.741368 -2.041609,0.990475 -0.577307,0.249107 -0.9838764,0.384151 -1.1872487,0.451702 -0.2033723,0.06755 -0.2033841,0.06759 -0.1582308,-0.736692 z"
         style="fill:#ffd42a;stroke:#000000;stroke-width:0.264583px;stroke-linecap:butt;stroke-linejoin:miter;stroke-opacity:1" />
      <path
         style="fill:#ff4081;fill-opacity:1;stroke:#000000;stroke-width:0.5"
         d="m 734.08208,847.86649 c -5.74224,-1.8071 -11.97332,-4.07718 -19.84887,-7.23123 -5.54224,-2.2196 -56.27123,-25.24989 -98.15113,-44.55932 -27.67254,-12.75888 -42.27182,-19.294 -75.75,-33.90816 l -20.5,-8.94883 0.14219,-3.95228 c 0.59688,-16.59018 0.82319,-30.37784 0.58191,-35.45227 -0.15691,-3.3 -0.2191,-6.08993 -0.1382,-6.19983 0.40196,-0.5461 44.88087,26.79437 101.1641,62.18397 31.5017,19.80753 50.48734,31.55911 92.5,57.25488 20.45745,12.51218 30.39684,18.89756 31.48113,20.22446 0.65034,0.79587 0.62597,0.97162 -0.22057,1.59062 -1.54821,1.13209 -5.63478,0.76845 -11.26056,-1.00201 z"
         id="path869"
         transform="scale(0.26458333)" />
    </g>
  </g>
</svg>
